<svg height='300px' width='300px'  fill="#ffffff" xmlns="http://www.w3.org/2000/svg" xmlns:xlink="http://www.w3.org/1999/xlink" version="1.1" x="0px" y="0px" viewBox="0 0 100 100" enable-background="new 0 0 100 100" xml:space="preserve"><g display="none"><path display="inline" fill="none" stroke="#000000" stroke-width="2" stroke-miterlimit="10" d="M56,77c5.6,0,12,2.7,12,6   s-7.6,6-17,6s-17-2.7-17-6s7.8-6,13-6"></path><path display="inline" fill="none" stroke="#000000" stroke-width="2" stroke-miterlimit="10" d="M79,72H23c-1.7,0-3-1.3-3-3V28   c0-1.7,1.3-3,3-3h56c1.7,0,3,1.3,3,3v41C82,70.7,80.7,72,79,72z"></path><g display="inline"><path fill="none" stroke="#000000" stroke-width="2" stroke-miterlimit="10" d="M43,83c0,0,4-3.6,4-4v-8"></path><path fill="none" stroke="#000000" stroke-width="2" stroke-miterlimit="10" d="M55,71v8c0,0.4,4,4,4,4"></path></g><g display="inline"><line fill="none" stroke="#000000" stroke-width="2" stroke-miterlimit="10" x1="40" y1="38" x2="47" y2="45"></line><line fill="none" stroke="#000000" stroke-width="2" stroke-miterlimit="10" x1="47" y1="38" x2="40" y2="45"></line></g><g display="inline"><line fill="none" stroke="#000000" stroke-width="2" stroke-miterlimit="10" x1="55" y1="38" x2="62" y2="45"></line><line fill="none" stroke="#000000" stroke-width="2" stroke-miterlimit="10" x1="62" y1="38" x2="55" y2="45"></line></g><line display="inline" fill="none" stroke="#000000" stroke-width="2" stroke-miterlimit="10" x1="44" y1="53" x2="58" y2="53"></line><path display="inline" fill="none" stroke="#000000" stroke-width="2" stroke-miterlimit="10" d="M57,53v1.5c0,1.9-1.6,3.5-3.5,3.5   h0c-1.9,0-3.5-1.6-3.5-3.5V53"></path><rect x="25" y="30" display="inline" fill="none" stroke="#000000" stroke-width="2" stroke-miterlimit="10" width="52" height="34"></rect><path display="inline" fill="none" stroke="#000000" stroke-width="2" stroke-miterlimit="10" d="M27.7,20.6c-1-0.6-1-2,0-2.6   l0.6-0.4c1-0.6,1-2,0-2.6l-0.6-0.4c-1-0.6-1-2,0-2.6"></path><path display="inline" fill="none" stroke="#000000" stroke-width="2" stroke-miterlimit="10" d="M36.7,20.6c-1-0.6-1-2,0-2.6   l0.6-0.4c1-0.6,1-2,0-2.6l-0.6-0.4c-1-0.6-1-2,0-2.6"></path><path display="inline" fill="none" stroke="#000000" stroke-width="2" stroke-miterlimit="10" d="M45.7,20.6c-1-0.6-1-2,0-2.6   l0.6-0.4c1-0.6,1-2,0-2.6l-0.6-0.4c-1-0.6-1-2,0-2.6"></path><path display="inline" fill="none" stroke="#000000" stroke-width="2" stroke-miterlimit="10" d="M54.7,20.6c-1-0.6-1-2,0-2.6   l0.6-0.4c1-0.6,1-2,0-2.6l-0.6-0.4c-1-0.6-1-2,0-2.6"></path><path display="inline" fill="none" stroke="#000000" stroke-width="2" stroke-miterlimit="10" d="M63.7,20.6c-1-0.6-1-2,0-2.6   l0.6-0.4c1-0.6,1-2,0-2.6l-0.6-0.4c-1-0.6-1-2,0-2.6"></path><path display="inline" fill="none" stroke="#000000" stroke-width="2" stroke-miterlimit="10" d="M72.7,20.6c-1-0.6-1-2,0-2.6   l0.6-0.4c1-0.6,1-2,0-2.6l-0.6-0.4c-1-0.6-1-2,0-2.6"></path></g><g><g><path d="M79,24H23c-2.2,0-4,1.8-4,4v41c0,2.2,1.8,4,4,4h23v3c-5.5,0.3-13,3-13,7c0,4.5,9.3,7,18,7s18-2.5,18-7c0-4-6.9-7-13-7v-3    h23c2.2,0,4-1.8,4-4V28C83,25.8,81.2,24,79,24z M58.3,83.7l1.3-1.5c-1.5-1.3-3.2-3-3.7-3.5V78c5.3,0,11,2.6,11,5c0,2.1-6.1,5-16,5    s-16-2.9-16-5c0-2.1,5.8-4.7,11-5v0.7c-0.5,0.6-2.2,2.2-3.7,3.5l1.3,1.5C48,79.8,48,79.5,48,79v-6h6v6C54,79.5,54,79.8,58.3,83.7z     M81,69c0,1.1-0.9,2-2,2H56h-2h-6h-2H23c-1.1,0-2-0.9-2-2V28c0-1.1,0.9-2,2-2h56c1.1,0,2,0.9,2,2V69z"></path><polygon points="46.3,45.7 47.7,44.3 44.9,41.5 47.7,38.7 46.3,37.3 43.5,40.1 40.7,37.3 39.3,38.7 42.1,41.5 39.3,44.3     40.7,45.7 43.5,42.9   "></polygon><polygon points="61.3,37.3 58.5,40.1 55.7,37.3 54.3,38.7 57.1,41.5 54.3,44.3 55.7,45.7 58.5,42.9 61.3,45.7 62.7,44.3     59.9,41.5 62.7,38.7   "></polygon><path d="M44,54h5v0.5c0,2.5,2,4.5,4.5,4.5s4.5-2,4.5-4.5V54v-1v-1H44V54z M56,54.5c0,1.4-1.1,2.5-2.5,2.5S51,55.9,51,54.5V54h5    V54.5z"></path><path d="M24,65h54V29H24V65z M26,31h50v32H26V31z"></path><path d="M27.8,16.8l-0.6,0.4c-0.8,0.5-1.2,1.3-1.2,2.2c0,0.9,0.5,1.7,1.2,2.2l1-1.7C28,19.6,28,19.4,28,19.3c0-0.1,0-0.3,0.3-0.5    l0.6-0.4c0.8-0.5,1.2-1.3,1.2-2.2c0-0.9-0.5-1.7-1.2-2.2l-0.6-0.4C28,13.6,28,13.4,28,13.3c0-0.1,0-0.3,0.3-0.5l-1-1.7    c-0.8,0.5-1.2,1.3-1.2,2.2c0,0.9,0.5,1.7,1.2,2.2l0.6,0.4c0.2,0.1,0.3,0.4,0.3,0.5C28.1,16.4,28.1,16.6,27.8,16.8z"></path><path d="M36.8,16.8l-0.6,0.4c-0.8,0.5-1.2,1.3-1.2,2.2c0,0.9,0.5,1.7,1.2,2.2l1-1.7C37,19.6,37,19.4,37,19.3c0-0.1,0-0.3,0.3-0.5    l0.6-0.4c0.8-0.5,1.2-1.3,1.2-2.2c0-0.9-0.5-1.7-1.2-2.2l-0.6-0.4C37,13.6,37,13.4,37,13.3c0-0.1,0-0.3,0.3-0.5l-1-1.7    c-0.8,0.5-1.2,1.3-1.2,2.2c0,0.9,0.5,1.7,1.2,2.2l0.6,0.4c0.2,0.1,0.3,0.4,0.3,0.5C37.1,16.4,37.1,16.6,36.8,16.8z"></path><path d="M45.8,16.8l-0.6,0.4c-0.8,0.5-1.2,1.3-1.2,2.2c0,0.9,0.5,1.7,1.2,2.2l1-1.7C46,19.6,46,19.4,46,19.3c0-0.1,0-0.3,0.3-0.5    l0.6-0.4c0.8-0.5,1.2-1.3,1.2-2.2c0-0.9-0.5-1.7-1.2-2.2l-0.6-0.4C46,13.6,46,13.4,46,13.3c0-0.1,0-0.3,0.3-0.5l-1-1.7    c-0.8,0.5-1.2,1.3-1.2,2.2c0,0.9,0.5,1.7,1.2,2.2l0.6,0.4c0.2,0.1,0.3,0.4,0.3,0.5C46.1,16.4,46.1,16.6,45.8,16.8z"></path><path d="M54.8,16.8l-0.6,0.4c-0.8,0.5-1.2,1.3-1.2,2.2c0,0.9,0.5,1.7,1.2,2.2l1-1.7C55,19.6,55,19.4,55,19.3c0-0.1,0-0.3,0.3-0.5    l0.6-0.4c0.8-0.5,1.2-1.3,1.2-2.2c0-0.9-0.5-1.7-1.2-2.2l-0.6-0.4C55,13.6,55,13.4,55,13.3c0-0.1,0-0.3,0.3-0.5l-1-1.7    c-0.8,0.5-1.2,1.3-1.2,2.2c0,0.9,0.5,1.7,1.2,2.2l0.6,0.4c0.2,0.1,0.3,0.4,0.3,0.5C55.1,16.4,55.1,16.6,54.8,16.8z"></path><path d="M63.8,16.8l-0.6,0.4c-0.8,0.5-1.2,1.3-1.2,2.2c0,0.9,0.5,1.7,1.2,2.2l1-1.7C64,19.6,64,19.4,64,19.3c0-0.1,0-0.3,0.3-0.5    l0.6-0.4c0.8-0.5,1.2-1.3,1.2-2.2c0-0.9-0.5-1.7-1.2-2.2l-0.6-0.4C64,13.6,64,13.4,64,13.3c0-0.1,0-0.3,0.3-0.5l-1-1.7    c-0.8,0.5-1.2,1.3-1.2,2.2c0,0.9,0.5,1.7,1.2,2.2l0.6,0.4c0.2,0.1,0.3,0.4,0.3,0.5C64.1,16.4,64.1,16.6,63.8,16.8z"></path><path d="M72.7,16.8l-0.6,0.4c-0.8,0.5-1.2,1.3-1.2,2.2c0,0.9,0.5,1.7,1.2,2.2l1-1.7c-0.2-0.1-0.3-0.4-0.3-0.5c0-0.1,0-0.3,0.3-0.5    l0.6-0.4c0.8-0.5,1.2-1.3,1.2-2.2c0-0.9-0.5-1.7-1.2-2.2l-0.6-0.4c-0.2-0.1-0.3-0.4-0.3-0.5c0-0.1,0-0.3,0.3-0.5l-1-1.7    c-0.8,0.5-1.2,1.3-1.2,2.2c0,0.9,0.5,1.7,1.2,2.2l0.6,0.4C73,16,73,16.2,73,16.3C73,16.4,73,16.6,72.7,16.8z"></path></g></g></svg>